<svg width="24" height="25" viewBox="0 0 24 25" fill="none" xmlns="http://www.w3.org/2000/svg">
<g id="instagram">
<path id="Vector" d="M17 2.5H7C4.23858 2.5 2 4.73858 2 7.5V17.5C2 20.2614 4.23858 22.5 7 22.5H17C19.7614 22.5 22 20.2614 22 17.5V7.5C22 4.73858 19.7614 2.5 17 2.5Z" stroke="black" stroke-width="2" stroke-linecap="round" stroke-linejoin="round"/>
<path id="Vector_2" d="M16 11.8698C16.1234 12.7021 15.9813 13.552 15.5938 14.2988C15.2063 15.0456 14.5932 15.6512 13.8416 16.0295C13.0901 16.4077 12.2385 16.5394 11.4078 16.4057C10.5771 16.2721 9.80977 15.8799 9.21485 15.285C8.61993 14.6901 8.22774 13.9227 8.09408 13.092C7.96042 12.2614 8.09208 11.4097 8.47034 10.6582C8.8486 9.90667 9.4542 9.29355 10.201 8.90605C10.9478 8.51856 11.7978 8.3764 12.63 8.49981C13.4789 8.6257 14.2649 9.02128 14.8717 9.62812C15.4785 10.235 15.8741 11.0209 16 11.8698Z" stroke="black" stroke-width="2" stroke-linecap="round" stroke-linejoin="round"/>
<path id="Vector_3" d="M17.5 7H17.51" stroke="black" stroke-width="2" stroke-linecap="round" stroke-linejoin="round"/>
</g>
</svg>
